<?xml version="1.0" standalone="no"?>
<!DOCTYPE svg PUBLIC "-//W3C//DTD SVG 20010904//EN"
 "http://www.w3.org/TR/2001/REC-SVG-20010904/DTD/svg10.dtd">
<svg version="1.0" xmlns="http://www.w3.org/2000/svg"
 width="512.000000pt" height="512.000000pt" viewBox="0 0 512.000000 512.000000"
 preserveAspectRatio="xMidYMid meet">

<g transform="translate(0.000000,512.000000) scale(0.100000,-0.100000)"
fill="#000000" stroke="none">
<path d="M1323 5096 l-28 -24 0 -744 0 -743 1265 0 1265 0 0 743 0 744 -28 24
-28 24 -1209 0 -1209 0 -28 -24z m572 -511 c46 -45 27 -95 -50 -141 l-45 -26
0 -201 1 -202 52 -30 c38 -22 54 -38 61 -62 10 -38 -10 -77 -51 -96 -22 -10
-34 -7 -100 28 -42 22 -86 50 -99 62 l-24 22 0 274 c0 316 -6 293 100 357 78
46 120 50 155 15z"/>
<path d="M1292 1859 l3 -1561 28 -24 c24 -21 38 -24 100 -24 l73 0 29 -98 c20
-66 38 -106 56 -124 l27 -28 229 0 c187 0 232 3 250 15 14 10 34 53 58 125
l37 110 378 0 378 0 37 -110 c24 -72 44 -115 58 -125 18 -12 63 -15 250 -15
l229 0 27 28 c18 18 36 58 56 124 l29 98 73 0 c62 0 76 3 100 24 l28 24 3
1561 2 1561 -1270 0 -1270 0 2 -1561z m598 1251 c49 -49 31 -104 -48 -148
l-42 -23 0 -202 0 -202 46 -25 c44 -24 74 -62 74 -95 0 -9 -14 -30 -30 -47
-24 -24 -37 -29 -58 -25 -39 8 -170 85 -182 107 -6 11 -10 131 -10 288 0 312
-7 290 105 352 78 44 116 49 145 20z"/>
</g>
</svg>
