<?xml version="1.0" encoding="UTF-8"?>
<svg version="1.1" xmlns="http://www.w3.org/2000/svg" width="1024" height="1024">
<path d="M0 0 C8.20174239 5.65317837 13.92089385 14.19470449 16.30111194 23.87291557 C16.84871731 27.2098254 16.88979031 30.38097649 16.89314651 33.76381969 C16.89519915 34.4689564 16.89725178 35.17409311 16.89936662 35.9005976 C16.90503225 38.26929514 16.90357991 40.63793445 16.90216064 43.00663757 C16.90474453 44.71974355 16.90775776 46.43284893 16.91116405 48.14595348 C16.91923454 52.85840832 16.92102365 57.57084793 16.92176151 62.28330886 C16.92361198 67.36390013 16.93115928 72.44448349 16.93789673 77.52507019 C16.95148086 88.63666035 16.95750487 99.74824689 16.96190739 110.85984397 C16.96466963 117.79736454 16.96890695 124.73488371 16.97341156 131.67240334 C16.98560425 150.87867362 16.99590362 170.08494278 16.99928665 189.29121685 C16.99950622 190.52055191 16.99972578 191.74988696 16.999952 193.01647459 C17.00017028 194.24875786 17.00038856 195.48104113 17.00061345 196.75066632 C17.00105692 199.24775867 17.00150348 201.74485101 17.00195312 204.24194336 C17.00217455 205.48058849 17.00239598 206.71923363 17.00262412 207.99541346 C17.00657233 228.06692135 17.02402705 248.13839294 17.04731265 268.20988681 C17.07102416 288.81474095 17.08348841 309.41957687 17.08465457 330.02444488 C17.08557143 341.59421981 17.09132666 353.16394743 17.10947418 364.73370934 C17.12487243 374.5854479 17.12999723 384.43712455 17.12173608 394.28887286 C17.11782864 399.31487946 17.11876384 404.34076136 17.13279343 409.36675262 C17.14552646 413.97038473 17.14434001 418.57379835 17.13220271 423.17743013 C17.13024469 424.84030298 17.13332901 426.50319127 17.14204708 428.16604241 C17.20919468 441.84255908 15.65487181 453.83858223 6.16796875 464.46484375 C-2.09330753 472.08314334 -11.82285383 475.29045448 -22.88305664 475.12524414 C-27.63418083 474.79846661 -31.73584842 473.36424803 -36.171875 471.70703125 C-37.45486732 471.24302162 -37.45486732 471.24302162 -38.76377869 470.76963806 C-40.61666473 470.09928999 -42.46804511 469.42476844 -44.3180542 468.746521 C-49.39588953 466.89145811 -54.49243663 465.08884482 -59.5859375 463.27734375 C-61.6947475 462.52563197 -63.8034711 461.77367775 -65.91210938 461.02148438 C-66.96084229 460.64757568 -68.0095752 460.27366699 -69.09008789 459.88842773 C-71.26151456 459.11321306 -73.43239911 458.33647844 -75.6027832 457.55834961 C-78.78313891 456.41867686 -81.96556078 455.28495339 -85.1484375 454.15234375 C-86.60601219 453.62750145 -86.60601219 453.62750145 -88.09303284 453.09205627 C-88.9892485 452.77429733 -89.88546417 452.45653839 -90.80883789 452.12915039 C-91.98743126 451.70781578 -91.98743126 451.70781578 -93.18983459 451.27796936 C-95.36255838 450.53951082 -95.36255838 450.53951082 -98.23828125 450.6796875 C-98.23828125 450.0196875 -98.23828125 449.3596875 -98.23828125 448.6796875 C-100.21828125 448.3496875 -102.19828125 448.0196875 -104.23828125 447.6796875 C-104.48578125 448.40285156 -104.73328125 449.12601563 -104.98828125 449.87109375 C-108.82165531 458.4842061 -116.83547755 464.81618292 -125.23828125 468.6796875 C-128.53441982 469.86557593 -131.83472491 470.85414405 -135.23828125 471.6796875 C-135.33625 472.33195312 -135.43421875 472.98421875 -135.53515625 473.65625 C-136.59975179 479.87862738 -137.72095855 484.87317002 -142.89941406 489.00512695 C-148.09194035 492.49348357 -152.16021896 493.48139538 -158.36328125 493.5546875 C-159.18932861 493.57877686 -160.01537598 493.60286621 -160.86645508 493.62768555 C-163.32519931 493.68214463 -165.77903446 493.6923876 -168.23828125 493.6796875 C-168.93453613 493.67694824 -169.63079102 493.67420898 -170.34814453 493.67138672 C-179.60334812 493.54434998 -186.15516948 492.399856 -193.05078125 486.1171875 C-196.23988587 481.94764869 -197.13640207 476.71428992 -198.23828125 471.6796875 C-198.75603245 471.84299026 -199.27378365 472.00629301 -199.80722427 472.17454433 C-202.96123649 472.82990854 -205.91221325 472.78349656 -209.13519287 472.76197815 C-209.82873092 472.75874902 -210.52226897 472.75551989 -211.23682332 472.75219291 C-213.55995679 472.74013222 -215.88297126 472.72075643 -218.20605469 472.70141602 C-219.87164553 472.6912717 -221.53723918 472.68157819 -223.20283508 472.67230225 C-227.72521978 472.64583656 -232.24753937 472.61305389 -236.76987362 472.57915235 C-241.49574962 472.5447942 -246.22166049 472.51622439 -250.9475708 472.48704529 C-259.89708294 472.43090653 -268.8465514 472.36954858 -277.79601598 472.30632395 C-287.98452289 472.23459943 -298.17306476 472.16868043 -308.36161375 472.10325348 C-329.32054833 471.96853295 -350.27942817 471.8265075 -371.23828125 471.6796875 C-371.36235352 472.36240723 -371.48642578 473.04512695 -371.61425781 473.74853516 C-371.7840918 474.64620605 -371.95392578 475.54387695 -372.12890625 476.46875 C-372.29422852 477.35771973 -372.45955078 478.24668945 -372.62988281 479.16259766 C-373.83892742 484.16470438 -376.26577283 486.94534441 -380.30078125 489.9921875 C-386.39346486 493.49223979 -392.56387839 492.90135664 -399.37963867 492.91992188 C-401.53278546 492.92960656 -403.68496857 492.96063202 -405.83789062 492.9921875 C-407.21744228 492.99872039 -408.59700073 493.00396974 -409.9765625 493.0078125 C-411.8488855 493.02183105 -411.8488855 493.02183105 -413.7590332 493.03613281 C-420.06345661 492.39025125 -424.25811117 489.49778812 -428.23828125 484.6796875 C-430.73574739 480.20539962 -432.91484247 475.92303695 -432.23828125 470.6796875 C-433.14578125 470.6384375 -434.05328125 470.5971875 -434.98828125 470.5546875 C-446.38467281 468.85098452 -456.46494863 460.94640442 -463.2734375 452.0078125 C-465.07994039 449.29230497 -466.69504702 446.55216081 -468.23828125 443.6796875 C-468.64949219 442.92429687 -469.06070312 442.16890625 -469.484375 441.390625 C-477.46799684 424.37059602 -474.52807594 401.63149981 -474.49973059 383.22048879 C-474.49516307 378.82372385 -474.50221089 374.42697419 -474.50769043 370.0302124 C-474.51654019 361.44065178 -474.51468237 352.8511263 -474.50886515 344.26156436 C-474.50433176 337.276049 -474.50374297 330.29054342 -474.50591278 323.30502701 C-474.50621925 322.30740462 -474.50652571 321.30978224 -474.50684147 320.28192887 C-474.50748097 318.25473419 -474.5081294 316.2275395 -474.50878665 314.20034482 C-474.51447684 295.23373818 -474.50795237 276.26715095 -474.49718592 257.3005475 C-474.48824885 241.05403368 -474.48980628 224.80754846 -474.49902344 208.56103516 C-474.50974452 189.65500771 -474.51393053 170.74899721 -474.50779891 151.84296715 C-474.50716187 149.82421692 -474.50653312 147.80546669 -474.50591278 145.78671646 C-474.50560423 144.79366972 -474.50529568 143.80062297 -474.50497778 142.7774839 C-474.50325655 135.80569102 -474.50615349 128.83390897 -474.51087189 121.86211777 C-474.51650107 113.35840068 -474.51492151 104.85472047 -474.5043104 96.35100757 C-474.49908143 92.01885965 -474.49694924 87.68677306 -474.5036087 83.3546257 C-474.5096281 79.37852198 -474.50619585 75.40253567 -474.4956536 71.4264424 C-474.49344471 69.99871176 -474.49449826 68.57097091 -474.49940518 67.14324699 C-474.55875035 48.41967168 -472.98267833 32.83294559 -461.23828125 17.6796875 C-460.4184375 16.61041016 -460.4184375 16.61041016 -459.58203125 15.51953125 C-451.73935002 5.9196455 -440.42798403 -0.84287665 -428.23828125 -3.3203125 C-425.53281013 -3.54940008 -422.84532371 -3.73557106 -420.13523865 -3.87472534 C-419.33882727 -3.91685272 -418.54241589 -3.9589801 -417.72187084 -4.00238407 C-409.10963798 -4.42457232 -400.50763048 -4.46113285 -391.88696289 -4.44970703 C-390.12737492 -4.45106742 -388.36778724 -4.45285088 -386.60820007 -4.45501709 C-381.86416769 -4.45953758 -377.12015734 -4.45781835 -372.37612462 -4.454638 C-367.30343785 -4.4520605 -362.23075266 -4.45446897 -357.1580658 -4.45602417 C-348.57485631 -4.45784118 -339.99165543 -4.4554631 -331.40844727 -4.45068359 C-322.78637113 -4.4459353 -314.16431238 -4.44579067 -305.54223633 -4.45068359 C-277.45902164 -4.46597941 -249.37632148 -4.4343262 -221.29327869 -4.33122444 C-218.22598535 -4.32026858 -215.15869004 -4.31035375 -212.09139252 -4.30064392 C-200.31314354 -4.26205656 -188.53539742 -4.19943948 -176.7574749 -4.10323715 C-173.15880716 -4.07444954 -169.56026618 -4.054423 -165.96150398 -4.04248428 C-161.79257987 -4.02817631 -157.62422874 -3.99495071 -153.45555806 -3.94714403 C-151.95025134 -3.93290063 -150.44486602 -3.92507458 -148.93949199 -3.92460585 C-134.27251693 -3.91185704 -122.4366265 -1.15793928 -111.23828125 8.6796875 C-109.04925313 10.89557486 -107.09425032 13.1812676 -105.23828125 15.6796875 C-104.23857858 17.01324378 -103.23861055 18.3466012 -102.23828125 19.6796875 C-93.42939324 17.52955211 -85.00436183 14.53299738 -76.50744629 11.40975952 C-74.13077843 10.53818399 -71.7510106 9.67563463 -69.37011719 8.81567383 C-62.11788262 6.1948385 -54.8772919 3.55068533 -47.6640625 0.82421875 C-31.06593419 -5.35361834 -16.33563877 -9.63603125 0 0 Z M-168.35107422 58.54443359 C-169.02348648 58.55389511 -169.69589874 58.56335663 -170.38868713 58.57310486 C-172.58624304 58.60647747 -174.78319806 58.65467687 -176.98046875 58.703125 C-178.51505003 58.72932664 -180.04964758 58.75459082 -181.58425903 58.77896118 C-185.60519069 58.84530424 -189.6257776 58.92425401 -193.64642334 59.00592041 C-197.7524306 59.08709169 -201.85863723 59.15633886 -205.96484375 59.2265625 C-213.15863438 59.35104082 -220.35216576 59.4859012 -227.54562378 59.62826538 C-231.05271054 59.69524079 -234.55676021 59.67000027 -238.06468201 59.65950012 C-258.85996687 59.59855389 -279.65523703 59.55360332 -300.45059109 59.52425098 C-311.14035528 59.50876154 -321.83005352 59.48762889 -332.51977539 59.45336914 C-341.83716453 59.42352199 -351.15450591 59.40412587 -360.47194153 59.39742202 C-365.40725719 59.39350226 -370.34243611 59.38425456 -375.27770805 59.36249733 C-379.91762447 59.3422063 -384.5573472 59.33583865 -389.19730377 59.34036446 C-390.90417342 59.33953598 -392.61104923 59.33352709 -394.31788063 59.32207108 C-396.640461 59.30724073 -398.96230091 59.31069859 -401.28489685 59.31892395 C-402.58701331 59.31615857 -403.88912977 59.31339319 -405.23070431 59.31054401 C-406.2232047 59.43236136 -407.21570509 59.55417871 -408.23828125 59.6796875 C-410.51381097 63.09298208 -410.48766574 64.28333834 -410.48551941 68.29051208 C-410.4897139 69.45842285 -410.49390839 70.62633362 -410.49822998 71.82963562 C-410.49261047 73.11231827 -410.48699097 74.39500092 -410.48120117 75.71655273 C-410.48227403 77.07994681 -410.48421276 78.44334044 -410.48695374 79.80673218 C-410.49180513 83.51129536 -410.48414234 87.21573826 -410.47400069 90.92028689 C-410.46522262 94.79549446 -410.46697761 98.67069822 -410.46736145 102.5459137 C-410.46642455 109.05512506 -410.45773781 115.56428985 -410.4440918 122.07348633 C-410.42837261 129.59940656 -410.42309346 137.12527574 -410.42382735 144.6512112 C-410.42443781 151.88871306 -410.41933031 159.12619828 -410.41103554 166.36369514 C-410.40750484 169.44454134 -410.40567259 172.52538166 -410.40514183 175.60622978 C-410.40413696 179.23495094 -410.39802854 182.86362926 -410.38797569 186.49233627 C-410.38366288 188.45962332 -410.38422205 190.42691916 -410.38491821 192.39421082 C-410.38065323 193.56494141 -410.37638824 194.735672 -410.37199402 195.94187927 C-410.37031817 196.95932944 -410.36864233 197.97677961 -410.3669157 199.02506161 C-410.25170293 201.40270467 -409.91878939 203.40775988 -409.23828125 205.6796875 C-407.98954224 205.71727173 -407.98954224 205.71727173 -406.71557617 205.75561523 C-403.62365292 205.85081444 -400.53189273 205.95004422 -397.44018555 206.05200195 C-395.44524806 206.11655756 -393.45016196 206.1764658 -391.45507812 206.23632812 C-390.20146484 206.27822266 -388.94785156 206.32011719 -387.65625 206.36328125 C-385.92024536 206.41826782 -385.92024536 206.41826782 -384.14916992 206.47436523 C-381.23828125 206.6796875 -381.23828125 206.6796875 -378.23828125 207.6796875 C-376.83378156 211.89318656 -376.55999659 215.83862913 -378.11328125 220.0546875 C-379.23828125 221.6796875 -379.23828125 221.6796875 -381.23828125 222.6796875 C-390.80828125 223.0096875 -400.37828125 223.3396875 -410.23828125 223.6796875 C-410.23828125 262.6196875 -410.23828125 301.5596875 -410.23828125 341.6796875 C-403.29069303 342.50847436 -403.29069303 342.50847436 -396.42064571 342.80552864 C-395.57512833 342.80813639 -394.72961094 342.81074414 -393.85847181 342.81343091 C-392.9602077 342.81120018 -392.06194359 342.80896946 -391.13645935 342.80667114 C-389.66943788 342.80901113 -389.66943788 342.80901113 -388.17277962 342.81139839 C-384.91652171 342.81536668 -381.66031094 342.81223497 -378.40405273 342.80908203 C-376.06105523 342.81043791 -373.71805793 342.8122189 -371.37506104 342.81439209 C-365.02608044 342.81894392 -358.67711613 342.81718617 -352.32813525 342.814013 C-346.35323124 342.8117352 -340.37832871 342.81347544 -334.40342475 342.8149402 C-321.8498852 342.8177879 -309.29635296 342.81451899 -296.74281461 342.80913983 C-285.98161558 342.8046714 -275.22042735 342.80544943 -264.45922852 342.81005859 C-251.94742803 342.81541509 -239.43563395 342.81751437 -226.92383248 342.81444633 C-220.30617284 342.81286753 -213.68851921 342.81267702 -207.07085991 342.81598282 C-200.85004818 342.81887344 -194.6292568 342.81686388 -188.40844727 342.81108856 C-186.1268066 342.80976742 -183.84516422 342.81014412 -181.56352425 342.81235123 C-178.44669961 342.81508806 -175.32994001 342.8116506 -172.21311951 342.80667114 C-171.31262467 342.80890186 -170.41212984 342.81113259 -169.48434728 342.81343091 C-168.64143764 342.81082316 -167.798528 342.80821541 -166.93007565 342.80552864 C-166.21196679 342.80536629 -165.49385794 342.80520394 -164.75398821 342.80503666 C-161.23310589 342.62960301 -157.73630908 342.11694098 -154.23828125 341.6796875 C-154.23828125 302.7396875 -154.23828125 263.7996875 -154.23828125 223.6796875 C-163.14828125 223.3496875 -172.05828125 223.0196875 -181.23828125 222.6796875 C-185.23828125 218.6796875 -185.23828125 218.6796875 -185.76953125 216.42578125 C-185.75921875 215.66394531 -185.74890625 214.90210938 -185.73828125 214.1171875 C-185.75375 212.97056641 -185.75375 212.97056641 -185.76953125 211.80078125 C-185.23828125 209.6796875 -185.23828125 209.6796875 -181.23828125 206.6796875 C-172.32828125 206.3496875 -163.41828125 206.0196875 -154.23828125 205.6796875 C-154.23828125 157.8296875 -154.23828125 109.9796875 -154.23828125 60.6796875 C-159.8154958 59.08619763 -162.83985613 58.44305767 -168.35107422 58.54443359 Z M-410.23828125 359.6796875 C-411.66498455 383.07348723 -411.66498455 383.07348723 -408.23828125 405.6796875 C-402.88590922 406.78643972 -397.71801062 406.82246257 -392.28048706 406.81340027 C-390.78245047 406.8167986 -390.78245047 406.8167986 -389.25415051 406.82026559 C-385.91014455 406.82659215 -382.56617925 406.8257771 -379.22216797 406.82495117 C-376.82386218 406.8279434 -374.42555687 406.83134608 -372.0272522 406.83512878 C-366.19133895 406.84304666 -360.35543803 406.84618301 -354.51951967 406.84674116 C-349.77713239 406.84721669 -345.03474844 406.84927326 -340.29236221 406.85244179 C-326.84571514 406.8612431 -313.39907604 406.8658617 -299.95242606 406.86511131 C-299.22804245 406.86507136 -298.50365885 406.8650314 -297.75732422 406.86499023 C-297.03205647 406.86494935 -296.30678871 406.86490847 -295.55954315 406.86486635 C-283.79353498 406.8644595 -272.02755875 406.8740403 -260.26155983 406.8881286 C-248.1792557 406.90248157 -236.09696716 406.90939946 -224.01465428 406.90853482 C-217.23162748 406.9082026 -210.44863421 406.91096128 -203.66561508 406.92171288 C-197.29135516 406.93136391 -190.91716627 406.93149369 -184.5429039 406.92419624 C-182.1999196 406.92314683 -179.85693095 406.92553429 -177.51395416 406.9315567 C-174.32325418 406.93922893 -171.13280246 406.93466359 -167.94210815 406.92692566 C-167.00846085 406.93206922 -166.07481355 406.93721279 -165.11287391 406.94251221 C-164.25866139 406.93791342 -163.40444887 406.93331462 -162.52435112 406.92857647 C-161.41968697 406.92890252 -161.41968697 406.92890252 -160.29270637 406.92923516 C-157.74760463 406.62008581 -156.29765252 406.2396834 -154.23828125 404.6796875 C-151.77229644 389.88377864 -153.85379224 374.67475896 -154.23828125 359.6796875 C-238.71828125 359.6796875 -323.19828125 359.6796875 -410.23828125 359.6796875 Z " fill="#BC93FE" transform="translate(754.23828125,185.3203125)"/>
<path d="M0 0 C5.86455159 3.86527264 9.18380745 7.92517708 10.75 14.8125 C11.1915665 20.30548254 11.15538143 25.78674496 11.13095093 31.2926178 C11.13440947 32.98570461 11.13917536 34.67878917 11.14513266 36.37186903 C11.15764515 41.01498669 11.15147113 45.65791914 11.14217401 50.30103743 C11.13538496 55.31199685 11.145864 60.32292447 11.15411377 65.33387756 C11.16745452 75.14636268 11.16457191 84.95877895 11.15587585 94.77126677 C11.14910145 102.74537396 11.14818153 110.71946185 11.1514473 118.69357109 C11.151907 119.82836422 11.15236669 120.96315735 11.15284032 122.13233815 C11.1537995 124.43761576 11.15477214 126.74289337 11.1557581 129.04817098 C11.16431289 150.66503932 11.15447624 172.2818695 11.138357 193.89873158 C11.12495193 212.45016633 11.1272833 231.00154478 11.14111328 249.55297852 C11.15716438 271.09390564 11.16349082 292.63479933 11.15427649 314.1757316 C11.15332084 316.47223595 11.15237772 318.76874031 11.1514473 321.06524467 C11.15098447 322.195185 11.15052164 323.32512532 11.15004479 324.48930626 C11.14745363 332.45507344 11.15182859 340.42081943 11.15888596 348.38658333 C11.16729584 358.09231938 11.16503149 367.79798264 11.14904372 377.50371034 C11.14115443 382.45645058 11.13808071 387.40906941 11.14799118 392.36180878 C11.15692475 396.89486028 11.15202726 401.42767771 11.13605852 405.96070796 C11.13270508 407.6012262 11.13441744 409.24176418 11.14168589 410.88226975 C11.1508075 413.11192433 11.14145328 415.34077697 11.12752342 417.57038975 C11.12679284 419.42812184 11.12679284 419.42812184 11.12604749 421.32338387 C10.5600487 426.57494271 8.77941367 431.51754237 4.875 435.25 C-0.36597479 439.15936843 -5.98908528 438.51718993 -12.25 437.8125 C-17.73588464 436.39794319 -22.96169889 434.45389825 -28.25 432.4375 C-29.73484227 431.88901075 -31.22053596 431.34282146 -32.70703125 430.79882812 C-34.98179726 429.96564177 -37.25575727 429.13067513 -39.52685547 428.28753662 C-47.05546723 425.49269564 -54.64641528 422.89483087 -62.25 420.3125 C-64.54255316 419.53385522 -66.83427414 418.75275427 -69.125 417.96875 C-70.07117188 417.64712891 -71.01734375 417.32550781 -71.9921875 416.99414062 C-76.45265449 415.37628539 -80.84455457 413.57467817 -85.25 411.8125 C-85.25 283.7725 -85.25 155.7325 -85.25 23.8125 C-71.06 19.1925 -56.87 14.5725 -42.25 9.8125 C-34.8908215 7.11306334 -27.58059752 4.43023239 -20.28466797 1.59448242 C-13.2296928 -1.11695092 -7.28821766 -2.66300261 0 0 Z " fill="#D4B8FE" transform="translate(739.25,201.1875)"/>
<path d="M0 0 C0.92973182 -0.00445784 1.85946365 -0.00891569 2.81736916 -0.01350862 C3.84565184 -0.01332426 4.87393451 -0.01313989 5.93337727 -0.01294994 C7.02045564 -0.01662663 8.107534 -0.02030332 9.22755414 -0.02409142 C12.89482478 -0.03516394 16.56206712 -0.03897814 20.229352 -0.04278088 C22.84879872 -0.04904283 25.46824455 -0.05568939 28.0876894 -0.0626936 C35.96682018 -0.08246924 43.84595228 -0.09252615 51.72510168 -0.10142139 C55.43453538 -0.10580297 59.14396766 -0.11117016 62.85340023 -0.11641026 C75.18313997 -0.13342455 87.5128788 -0.14791859 99.84262848 -0.155159 C103.04331367 -0.15706893 106.24399886 -0.15898926 109.44468403 -0.16094494 C110.63797448 -0.16167055 110.63797448 -0.16167055 111.85537181 -0.16241082 C124.74158066 -0.17071059 137.62769665 -0.1960457 150.51386496 -0.22852562 C163.7407591 -0.26159275 176.96760606 -0.27960749 190.19454175 -0.28280324 C197.6221958 -0.28496879 205.04971451 -0.29372382 212.4773283 -0.31926441 C219.46471284 -0.34323548 226.45185002 -0.34679922 233.43926716 -0.33650303 C236.00514059 -0.33600629 238.57102581 -0.34236716 241.13686275 -0.35605907 C244.6378506 -0.37369703 248.13795589 -0.36671069 251.63894367 -0.35352612 C253.16463727 -0.36997998 253.16463727 -0.36997998 254.72115296 -0.38676625 C260.89701087 -0.33055494 264.55901168 0.50190979 269.60361958 4.13422108 C273.65204047 8.60879153 274.72822066 11.01850678 274.73504734 16.98581028 C274.73888849 18.24011459 274.74272963 19.4944189 274.74668717 20.78673244 C274.74590683 22.19160419 274.74502803 23.5964759 274.74406147 25.00134754 C274.74664361 26.48372642 274.74965634 27.96610459 274.75306487 29.4484818 C274.76115601 33.53694947 274.76292562 37.62539961 274.76366234 41.71387434 C274.76550925 46.11754454 274.77305477 50.52120557 274.77979755 54.92487049 C274.79339671 64.56120998 274.79940814 74.19754533 274.80380821 83.83389282 C274.80656814 89.84788508 274.81080504 95.86187572 274.81531239 101.87586689 C274.82750745 118.51795189 274.83780608 135.1600356 274.84118748 151.80212498 C274.84140704 152.86788541 274.84162661 153.93364585 274.84185283 155.03170206 C274.84207111 156.10005438 274.84228938 157.1684067 274.84251428 158.26913333 C274.84295775 160.43412352 274.84340431 162.5991137 274.84385395 164.76410389 C274.84407538 165.83802034 274.84429681 166.91193679 274.84452495 168.01839617 C274.84847347 185.42212419 274.86592808 202.82581035 274.88921347 220.2295222 C274.9129124 238.08607211 274.92538867 255.94260102 274.9265554 273.79916692 C274.92747301 283.82961413 274.93324704 293.86000682 274.95137501 303.89043903 C274.96675637 312.43143409 274.97190812 320.97235778 274.9636369 329.51336405 C274.95972333 333.87254863 274.96069435 338.23158942 274.97469425 342.59075642 C274.98739098 346.5805867 274.98627307 350.57016452 274.97410354 354.55999425 C274.97213917 356.00417942 274.97525901 357.44838221 274.9839479 358.89254257 C274.99500718 360.85475498 274.98578041 362.81705037 274.97555637 364.77926731 C274.97615346 365.86949939 274.97675055 366.95973148 274.97736573 368.0830009 C274.34946811 373.20908412 272.19861813 377.11481051 268.22861958 380.38422108 C267.38170551 381.10351795 267.38170551 381.10351795 266.51768208 381.83734608 C260.93077932 385.62275774 255.64757153 385.42416926 249.11637592 385.40837574 C248.04856317 385.41361242 246.98075042 385.4188491 245.88057971 385.42424446 C242.29635997 385.43926676 238.71228272 385.43995012 235.12803364 385.44061756 C232.56064837 385.44823755 229.99326538 385.45666477 227.4258852 385.46584034 C220.44646134 385.48867404 213.46706792 385.4966092 206.48761177 385.50166678 C202.12773467 385.50492573 197.76786638 385.5114494 193.40799427 385.51866817 C181.33119841 385.53823204 169.25441073 385.55463748 157.177598 385.55754471 C156.01873627 385.55782606 156.01873627 385.55782606 154.8364632 385.5581131 C153.27033949 385.55847935 151.70421578 385.55884305 150.13809207 385.55920421 C148.9719901 385.55947843 148.9719901 385.55947843 147.78233051 385.55975819 C147.00397774 385.55993874 146.22562498 385.56011928 145.42368576 385.5603053 C132.81381392 385.56384636 120.20411291 385.59086532 107.5943003 385.62825608 C94.64075725 385.66635796 81.68729893 385.68570232 68.73369861 385.68600422 C61.46361215 385.68658837 54.19372949 385.69505291 46.92369556 385.72400188 C40.0847716 385.75110942 33.2462572 385.7524046 26.4073 385.73634624 C23.8987029 385.73452928 21.39008277 385.74124458 18.88153553 385.75716496 C15.45347819 385.77759267 12.02683721 385.76709108 8.5987978 385.74895191 C7.60899552 385.76215188 6.61919323 385.77535185 5.59939694 385.78895181 C-1.09249386 385.70822478 -6.02253672 384.22124661 -11.39638042 380.13422108 C-15.9339993 375.19296116 -17.51963058 370.83160251 -17.5306015 364.20643616 C-17.53505935 362.96059098 -17.53951719 361.71474581 -17.54411012 360.43114775 C-17.54402082 359.04100906 -17.54383096 357.65087037 -17.54355145 356.2607317 C-17.54685004 354.78986397 -17.5505756 353.31899714 -17.55469292 351.84813148 C-17.56472133 347.79612999 -17.56843106 343.74414331 -17.57108223 339.69213116 C-17.57498272 335.32596876 -17.58456114 330.95981812 -17.5932951 326.59366322 C-17.61306533 316.04529748 -17.62312581 305.49693078 -17.63202289 294.94855115 C-17.63640432 289.98378147 -17.64177145 285.01901287 -17.64701176 280.05424404 C-17.66402356 263.5553783 -17.67851889 247.05651324 -17.6857605 230.55764008 C-17.68767045 226.27530574 -17.68959078 221.99297141 -17.69154644 217.71063709 C-17.69227205 216.11406843 -17.69227205 216.11406843 -17.69301232 214.48524586 C-17.701317 197.23353097 -17.72666152 179.98188531 -17.75912712 162.73020067 C-17.79217092 145.02730105 -17.81020678 127.32443666 -17.81340474 109.62150604 C-17.81557217 99.67824371 -17.82435505 89.7350824 -17.84986591 79.79185009 C-17.87153623 71.32589117 -17.87964141 62.86005779 -17.86989913 54.39407428 C-17.86534393 50.07331843 -17.86731121 45.75282181 -17.88666058 41.43210125 C-17.90421817 37.47740475 -17.90335528 33.52315801 -17.88776328 29.56845722 C-17.88537591 28.13708483 -17.88976908 26.70568189 -17.90159193 25.27435633 C-18.00405348 12.05194094 -18.00405348 12.05194094 -13.39638042 7.13422108 C-11.54481792 5.27093983 -11.54481792 5.27093983 -9.77138042 3.82172108 C-9.1809898 3.33058826 -8.59059917 2.83945545 -7.98231792 2.33343983 C-5.2015081 0.23070924 -3.42780097 0.00760154 0 0 Z M242.49082661 17.99896717 C241.81841434 18.00842869 241.14600208 18.01789021 240.45321369 18.02763844 C238.25565779 18.06101105 236.05870276 18.10921045 233.86143208 18.15765858 C232.32685079 18.18386021 230.79225325 18.20912439 229.25764179 18.23349476 C225.23671014 18.29983781 221.21612322 18.37878759 217.19547749 18.46045399 C213.08947022 18.54162527 208.9832636 18.61087244 204.87705708 18.68109608 C197.68326645 18.8055744 190.48973506 18.94043477 183.29627705 19.08279896 C179.78919028 19.14977437 176.28514061 19.12453385 172.77721882 19.1140337 C151.98193395 19.05308746 131.1866638 19.0081369 110.39130974 18.97878456 C99.70154554 18.96329512 89.01184731 18.94216247 78.32212543 18.90790272 C69.00473629 18.87805557 59.68739491 18.85865945 50.36995929 18.85195559 C45.43464363 18.84803584 40.49946472 18.83878814 35.56419277 18.81703091 C30.92427635 18.79673987 26.28455363 18.79037222 21.64459705 18.79489803 C19.93772741 18.79406955 18.23085159 18.78806066 16.5240202 18.77660465 C14.20143983 18.7617743 11.87959992 18.76523217 9.55700397 18.77345753 C8.25488751 18.77069215 6.95277105 18.76792677 5.61119652 18.76507759 C4.61869613 18.88689494 3.62619574 19.00871229 2.60361958 19.13422108 C0.32808985 22.54751566 0.35423508 23.73787192 0.35638142 27.74504566 C0.35218693 28.91295643 0.34799244 30.0808672 0.34367085 31.2841692 C0.34929035 32.56685184 0.35490986 33.84953449 0.36069965 35.17108631 C0.3596268 36.53448039 0.35768806 37.89787401 0.35494709 39.26126575 C0.35009569 42.96582893 0.35775849 46.67027183 0.36790013 50.37482047 C0.37667821 54.25002803 0.37492322 58.1252318 0.37453938 62.00044727 C0.37547628 68.50965864 0.38416302 75.01882343 0.39780903 81.52801991 C0.41352822 89.05394014 0.41880736 96.57980932 0.41807348 104.10574478 C0.41746302 111.34324663 0.42257052 118.58073186 0.43086529 125.81822872 C0.43439598 128.89907492 0.43622824 131.97991524 0.436759 135.06076336 C0.43776386 138.68948451 0.44387229 142.31816284 0.45392513 145.94686985 C0.45823795 147.9141569 0.45767878 149.88145274 0.45698261 151.84874439 C0.4612476 153.01947498 0.46551258 154.19020557 0.46990681 155.39641285 C0.47158265 156.41386302 0.4732585 157.43131319 0.47498512 158.47959518 C0.5901979 160.85723825 0.92311144 162.86229346 1.60361958 165.13422108 C2.85235859 165.17180531 2.85235859 165.17180531 4.12632465 165.21014881 C7.2182479 165.30534801 10.31000809 165.4045778 13.40171528 165.50653553 C15.39665276 165.57109114 17.39173887 165.63099937 19.3868227 165.6908617 C20.64043598 165.73275623 21.89404926 165.77465076 23.18565083 165.81781483 C24.92165546 165.8728014 24.92165546 165.8728014 26.6927309 165.92889881 C29.60361958 166.13422108 29.60361958 166.13422108 32.60361958 167.13422108 C34.00811926 171.34772014 34.28190424 175.29316271 32.72861958 179.50922108 C31.60361958 181.13422108 31.60361958 181.13422108 29.60361958 182.13422108 C20.03361958 182.46422108 10.46361958 182.79422108 0.60361958 183.13422108 C0.60361958 222.07422108 0.60361958 261.01422108 0.60361958 301.13422108 C7.55120779 301.96300794 7.55120779 301.96300794 14.42125511 302.26006222 C15.2667725 302.26266997 16.11228989 302.26527771 16.98342901 302.26796448 C17.88169313 302.26573376 18.77995724 302.26350304 19.70544147 302.26120472 C21.17246294 302.26354471 21.17246294 302.26354471 22.66912121 302.26593196 C25.92537912 302.26990026 29.18158988 302.26676855 32.43784809 302.26361561 C34.7808456 302.26497149 37.1238429 302.26675247 39.46683979 302.26892567 C45.81582039 302.27347749 52.1647847 302.27171975 58.51376557 302.26854658 C64.48866958 302.26626878 70.46357211 302.26800902 76.43847608 302.26947378 C88.99201563 302.27232148 101.54554787 302.26905256 114.09908622 302.26367341 C124.86028524 302.25920498 135.62147348 302.25998301 146.38267231 302.26459217 C158.89447279 302.26994867 171.40626688 302.27204795 183.91806835 302.26897991 C190.53572798 302.26740111 197.15338161 302.2672106 203.77104092 302.2705164 C209.99185265 302.27340702 216.21264402 302.27139746 222.43345356 302.26562214 C224.71509422 302.264301 226.9967366 302.26467769 229.27837658 302.2668848 C232.39520121 302.26962163 235.51196081 302.26618418 238.62878132 302.26120472 C239.52927615 302.26343544 240.42977099 302.26566616 241.35755354 302.26796448 C242.20046318 302.26535673 243.04337282 302.26274899 243.91182518 302.26006222 C244.62993403 302.25989987 245.34804289 302.25973751 246.08791262 302.25957024 C249.60879494 302.08413659 253.10559175 301.57147456 256.60361958 301.13422108 C256.60361958 262.19422108 256.60361958 223.25422108 256.60361958 183.13422108 C247.69361958 182.80422108 238.78361958 182.47422108 229.60361958 182.13422108 C225.60361958 178.13422108 225.60361958 178.13422108 225.07236958 175.88031483 C225.08268208 175.11847889 225.09299458 174.35664295 225.10361958 173.57172108 C225.08815083 172.42509998 225.08815083 172.42509998 225.07236958 171.25531483 C225.60361958 169.13422108 225.60361958 169.13422108 229.60361958 166.13422108 C238.51361958 165.80422108 247.42361958 165.47422108 256.60361958 165.13422108 C256.60361958 117.28422108 256.60361958 69.43422108 256.60361958 20.13422108 C251.02640503 18.54073121 248.00204469 17.89759125 242.49082661 17.99896717 Z M0.60361958 319.13422108 C-0.82308372 342.52802081 -0.82308372 342.52802081 2.60361958 365.13422108 C7.95599161 366.2409733 13.12389021 366.27699614 18.56141376 366.26793385 C20.05945036 366.27133218 20.05945036 366.27133218 21.58775032 366.27479917 C24.93175628 366.28112573 28.27572157 366.28031068 31.61973286 366.27948475 C34.01803865 366.28247698 36.41634395 366.28587966 38.81464863 366.28966236 C44.65056188 366.29758024 50.4864628 366.30071659 56.32238115 366.30127474 C61.06476843 366.30175027 65.80715239 366.30380683 70.54953861 366.30697536 C83.99618569 366.31577668 97.44282479 366.32039528 110.88947476 366.31964489 C111.61385837 366.31960493 112.33824198 366.31956498 113.08457661 366.31952381 C113.80984436 366.31948293 114.53511211 366.31944205 115.28235768 366.31939993 C127.04836585 366.31899308 138.81434207 366.32857388 150.580341 366.34266218 C162.66264513 366.35701515 174.74493367 366.36393303 186.82724655 366.3630684 C193.61027335 366.36273617 200.39326662 366.36549485 207.17628574 366.37624645 C213.55054567 366.38589749 219.92473456 366.38602726 226.29899693 366.37872982 C228.64198122 366.37768041 230.98496987 366.38006786 233.32794666 366.38609028 C236.51864665 366.39376251 239.70909836 366.38919717 242.89979267 366.38145924 C243.83343997 366.3866028 244.76708727 366.39174636 245.72902691 366.39704579 C246.58323943 366.392447 247.43745196 366.3878482 248.31754971 366.38311005 C249.42221386 366.3834361 249.42221386 366.3834361 250.54919446 366.38376874 C253.09429619 366.07461939 254.5442483 365.69421697 256.60361958 364.13422108 C259.06960439 349.33831222 256.98810859 334.12929254 256.60361958 319.13422108 C172.12361958 319.13422108 87.64361958 319.13422108 0.60361958 319.13422108 Z " fill="#AA7AFE" transform="translate(343.3963804244995,225.86577892303467)"/>
<path d="M0 0 C0.82830322 0.0141243 1.65660645 0.0282486 2.51000977 0.0428009 C4.25836454 0.07585535 6.00665977 0.11220071 7.75488281 0.15161133 C10.42776843 0.20683021 13.10014964 0.23538442 15.7734375 0.26367188 C17.47399363 0.29912683 19.1745173 0.33618257 20.875 0.375 C22.07201538 0.38154854 22.07201538 0.38154854 23.29321289 0.38822937 C26.7788344 0.49521812 29.0185133 0.72676181 31.91015625 2.74731445 C34.75245208 6.9757747 34.57521729 11.58016074 34.64282227 16.55395508 C34.6727401 18.50541191 34.6727401 18.50541191 34.70326233 20.49629211 C34.72024289 21.90638105 34.73712183 23.31647121 34.75390625 24.7265625 C34.77449375 26.17673817 34.79549068 27.62690807 34.81687927 29.07707214 C34.87191455 32.8827954 34.92140511 36.68857114 34.96972656 40.49438477 C35.02007751 44.3823714 35.07569243 48.27028238 35.13085938 52.15820312 C35.23821392 59.77858166 35.3397087 67.39902336 35.4375 75.01953125 C38.9863852 75.82824089 42.2617898 76.1458349 45.89868164 76.14892578 C46.96651382 76.15207794 48.03434601 76.1552301 49.13453674 76.15847778 C50.27736618 76.15645355 51.42019562 76.15442932 52.59765625 76.15234375 C53.77968124 76.15330048 54.96170624 76.1542572 56.17955017 76.15524292 C58.67512058 76.15592265 61.17069277 76.15408279 63.66625977 76.14990234 C67.48913534 76.14454647 71.31189368 76.14985683 75.13476562 76.15625 C77.55989609 76.15558928 79.98502649 76.15430823 82.41015625 76.15234375 C83.55500992 76.15436798 84.69986359 76.15639221 85.87940979 76.15847778 C86.94408981 76.15532562 88.00876984 76.15217346 89.10571289 76.14892578 C90.50872398 76.14773239 90.50872398 76.14773239 91.94007874 76.14651489 C94.29355442 76.02685029 96.23003559 75.84446618 98.4375 75.01953125 C99.73410434 72.52918739 99.73410434 72.52918739 100.4375 70.01953125 C99.7775 69.68953125 99.1175 69.35953125 98.4375 69.01953125 C99.0975 69.01953125 99.7575 69.01953125 100.4375 69.01953125 C100.31375 67.74078125 100.19 66.46203125 100.0625 65.14453125 C99.95808594 64.06558594 99.95808594 64.06558594 99.8515625 62.96484375 C99.57375251 60.7928488 99.57375251 60.7928488 97.4375 59.01953125 C98.4275 58.68953125 99.4175 58.35953125 100.4375 58.01953125 C99.82924965 53.67488589 99.17582608 49.34401258 98.4375 45.01953125 C99.0975 45.01953125 99.7575 45.01953125 100.4375 45.01953125 C100.4060791 43.23337402 100.4060791 43.23337402 100.37402344 41.41113281 C100.30159038 36.99068236 100.25568828 32.57028429 100.21777344 28.14941406 C100.19766548 26.2365639 100.17037493 24.32377514 100.13574219 22.41113281 C100.08718751 19.66065314 100.06452342 16.91098648 100.046875 14.16015625 C100.02622986 13.30585022 100.00558472 12.45154419 99.98431396 11.5713501 C99.98208342 5.6611615 99.98208342 5.6611615 102.22875977 2.49584961 C108.88148996 -1.95082437 119.79234776 -0.06368788 127.56860352 0.15161133 C129.76257251 0.20735066 131.95591546 0.23556578 134.15039062 0.26367188 C135.55473118 0.29908971 136.95903171 0.33614054 138.36328125 0.375 C139.62567627 0.40231201 140.88807129 0.42962402 142.1887207 0.45776367 C146.11375694 1.13646724 147.06667263 1.86317586 149.4375 5.01953125 C149.83062274 7.66384581 149.97867241 9.89262664 149.94543457 12.53491211 C149.95167453 13.29504828 149.9579145 14.05518446 149.96434355 14.83835506 C149.98030797 17.38734321 149.96765635 19.93537964 149.95507812 22.484375 C149.96049773 24.31096963 149.96761948 26.13755989 149.97631836 27.96414185 C149.99457389 32.92693395 149.98747497 37.88939392 149.97480202 42.85219193 C149.96468591 48.04201411 149.97406383 53.23180757 149.98034668 58.42163086 C149.98762713 67.13758458 149.97802492 75.85340279 149.95898438 84.56933594 C149.9372149 94.65097507 149.94426599 104.73229064 149.96629 114.81392193 C149.98443264 123.46455247 149.98700787 132.11508553 149.97653532 140.76572895 C149.97029415 145.9346834 149.9694819 151.1034857 149.98268127 156.27243042 C149.99422261 161.13164313 149.98624546 165.99043806 149.96310425 170.84960556 C149.95780797 172.63463522 149.9593466 174.41969994 149.96815491 176.20471573 C149.97905807 178.63833781 149.96541148 181.07061446 149.94543457 183.50415039 C149.95435746 184.21348693 149.96328034 184.92282347 149.97247362 185.65365505 C149.91840944 189.04029665 149.66199826 190.73610872 147.53075409 193.42674255 C143.56703299 196.44279789 140.14013708 196.1965277 135.32421875 196.22265625 C134.51765335 196.22835632 133.71108795 196.2340564 132.88008118 196.2399292 C131.17112542 196.2493832 129.4621514 196.25591477 127.75317383 196.25976562 C125.14566959 196.26945445 122.53895922 196.30046625 119.93164062 196.33203125 C118.27083801 196.3385631 116.61002976 196.34381286 114.94921875 196.34765625 C113.7833448 196.36617645 113.7833448 196.36617645 112.59391785 196.3850708 C108.02993087 196.36640841 105.05367166 195.87698948 101.4375 193.01953125 C100.0180196 190.18057044 100.28125505 187.75634854 100.24804688 184.58203125 C100.23975357 183.92170898 100.23146027 183.26138672 100.22291565 182.58105469 C100.20550837 181.14602055 100.19034339 179.71095788 100.17713928 178.27587891 C100.15613176 176.00676002 100.12910795 173.73778449 100.10046387 171.46875 C100.03058639 165.8334056 99.97121395 160.19795892 99.91143799 154.5625 C99.8605395 149.80153376 99.80572137 145.04064439 99.74562073 140.27978516 C99.71900182 138.0407132 99.6982145 135.80163425 99.6776123 133.5625 C99.66101218 132.19400691 99.6441406 130.82551709 99.62695312 129.45703125 C99.61442505 128.25949219 99.60189697 127.06195313 99.58898926 125.828125 C99.62707227 123.06668321 99.62707227 123.06668321 98.4375 121.01953125 C95.29788642 119.97299339 93.09919031 119.89271248 89.80444336 119.89013672 C88.64992172 119.88698456 87.49540009 119.8838324 86.30589294 119.88058472 C85.05897171 119.88260895 83.81205048 119.88463318 82.52734375 119.88671875 C81.24896133 119.88576202 79.97057892 119.8848053 78.65345764 119.88381958 C75.94919458 119.88313858 73.24502168 119.88448671 70.54077148 119.88916016 C67.07152399 119.89486297 63.60235376 119.89157285 60.13310909 119.88558769 C56.82701785 119.88111015 53.520936 119.88424266 50.21484375 119.88671875 C48.96589828 119.88469452 47.71695282 119.88267029 46.43016052 119.88058472 C44.70310631 119.88531296 44.70310631 119.88531296 42.94116211 119.89013672 C41.41585121 119.89133011 41.41585121 119.89133011 39.85972595 119.89254761 C37.42691304 119.85825188 37.42691304 119.85825188 35.4375 121.01953125 C35.43385437 121.85811676 35.43020874 122.69670227 35.42645264 123.56069946 C35.38853415 131.47635151 35.33163782 139.39159316 35.25359726 147.30695534 C35.21414334 151.37603965 35.18194485 155.44490825 35.16650391 159.51416016 C35.15132324 163.44368975 35.11685364 167.3726262 35.06919098 171.30189133 C35.05439154 172.79848439 35.0464598 174.29516215 35.04561615 175.79182816 C35.04324019 177.89392042 35.01611521 179.99438176 34.98339844 182.09619141 C34.97007477 183.88822495 34.97007477 183.88822495 34.95648193 185.71646118 C34.32859326 189.7126702 33.02433318 191.93547268 30.4375 195.01953125 C29.4475 195.01953125 28.4575 195.01953125 27.4375 195.01953125 C27.4375 195.67953125 27.4375 196.33953125 27.4375 197.01953125 C15.2275 197.01953125 3.0175 197.01953125 -9.5625 197.01953125 C-9.5625 196.35953125 -9.5625 195.69953125 -9.5625 195.01953125 C-10.366875 194.73078125 -11.17125 194.44203125 -12 194.14453125 C-14.5625 193.01953125 -14.5625 193.01953125 -15.5625 191.01953125 C-15.79990024 188.3202646 -15.98213378 185.6427812 -16.11691284 182.9380188 C-16.15904022 182.13012063 -16.2011676 181.32222246 -16.24457157 180.48984253 C-16.63693424 172.43249494 -16.70387763 164.38893478 -16.69189453 156.32373047 C-16.69325488 154.74786845 -16.69503832 153.17200675 -16.69720459 151.59614563 C-16.70169999 147.37985857 -16.70002347 143.16359642 -16.6968255 138.94730902 C-16.694265 134.50817652 -16.69664918 130.06904593 -16.69821167 125.62991333 C-16.70002081 118.19142276 -16.69765823 110.75294218 -16.69287109 103.31445312 C-16.68741082 94.73118606 -16.68920895 86.14794268 -16.6946975 77.56467617 C-16.69924065 70.16127504 -16.69987389 62.75788102 -16.69725883 55.35447896 C-16.69570525 50.94689554 -16.69547743 46.53932326 -16.69879532 42.13174057 C-16.70169223 37.99639718 -16.69966498 33.86108435 -16.69390106 29.72574425 C-16.69258408 28.21328596 -16.69294945 26.70082508 -16.69516373 25.18836784 C-16.721018 5.72972448 -16.721018 5.72972448 -14.25 2.08203125 C-9.92073585 -0.64380173 -4.93398933 -0.08957021 0 0 Z " fill="#AC7BFE" transform="translate(406.5625,298.98046875)"/>
<path d="M0 0 C3.91851711 0.64121189 5.06308226 1.45749219 7.4375 4.5625 C8.97423525 7.63597049 8.59361665 10.86437971 8.59863281 14.23754883 C8.60359772 15.0296022 8.60856262 15.82165558 8.61367798 16.63771057 C8.62831456 19.26499289 8.63510448 21.89221481 8.640625 24.51953125 C8.64637572 26.34315493 8.65213347 28.16677859 8.65789795 29.99040222 C8.66841254 33.81790448 8.67425204 37.64538571 8.67773438 41.47290039 C8.6832166 46.37573877 8.70723686 51.27829909 8.73570633 56.1810503 C8.75433804 59.94973052 8.75953862 63.71834388 8.76107025 67.48706627 C8.76409668 69.29436448 8.7721249 71.10166152 8.78525543 72.90891457 C8.80232532 75.43924668 8.80043339 77.96890112 8.79394531 80.49926758 C8.8031601 81.24490967 8.81237488 81.99055176 8.8218689 82.75878906 C8.78625513 87.19643782 8.18240542 90.03692357 5.4375 93.5625 C2.30349115 95.12950442 -1.19405095 95.41414561 -4.5625 94.5625 C-7.56937767 91.66434685 -8.50463787 89.98484257 -9.0771637 85.8059082 C-9.1038334 84.32525949 -9.10866891 82.84411549 -9.09594727 81.36328125 C-9.10456284 80.55128265 -9.11317841 79.73928406 -9.12205505 78.90267944 C-9.14470356 76.22645934 -9.13797896 73.55128725 -9.12890625 70.875 C-9.13414206 69.01082041 -9.14041839 67.14664347 -9.14768982 65.2824707 C-9.15809173 61.37861652 -9.15353516 57.47512691 -9.13891602 53.57128906 C-9.12172174 48.57070591 -9.14523224 43.57127108 -9.18040562 38.57081604 C-9.20237389 34.7222941 -9.20093966 30.87404723 -9.1926403 27.02548218 C-9.1918206 25.18190246 -9.1986877 23.33830259 -9.21341133 21.49478149 C-9.23084876 18.91637713 -9.2163236 16.34004022 -9.19360352 13.76171875 C-9.20529572 13.00208832 -9.21698792 12.24245789 -9.22903442 11.45980835 C-9.15854756 7.52471736 -8.6904861 5.72697444 -6.24571228 2.58520508 C-3.5625 0.5625 -3.5625 0.5625 0 0 Z " fill="#AA78FE" transform="translate(725.5625,347.4375)"/>
<path d="M0 0 C1.485 0.99 1.485 0.99 3 2 C3.29465148 4.51507946 3.3914051 6.78451122 3.36076355 9.30178833 C3.36332682 10.06303792 3.3658901 10.82428751 3.36853105 11.60860527 C3.37349348 14.17303856 3.35693602 16.73689 3.34057617 19.30126953 C3.33973043 21.13405341 3.34020401 22.9668383 3.34190369 24.79962158 C3.34276713 29.78703574 3.32508508 34.77423501 3.30418181 39.76159906 C3.28547297 44.9693001 3.28366916 50.17700565 3.28010559 55.38473511 C3.27076805 65.25160469 3.2461312 75.11837498 3.21605712 84.98520076 C3.1825662 96.21597475 3.16604048 107.44675339 3.15097082 118.67756486 C3.1195831 141.78509837 3.06678948 164.89254363 3 188 C2.01 188 1.02 188 0 188 C0 125.96 0 63.92 0 0 Z " fill="#9F6CF9" transform="translate(553,302)"/>
<path d="M0 0 C82.5 0 165 0 250 0 C245.84041841 2.07979079 243.98493415 2.26304508 239.44311523 2.30297852 C238.79386078 2.31141785 238.14460632 2.31985718 237.47567749 2.32855225 C235.33664186 2.35427354 233.19774411 2.36645687 231.05859375 2.37890625 C229.56932998 2.39508628 228.08007678 2.41226681 226.59083557 2.43040466 C222.67445764 2.47604964 218.75806547 2.51087615 214.84155273 2.54260254 C208.56927668 2.59451586 202.29715615 2.65965289 196.0250721 2.73081779 C193.83422852 2.75363922 191.64340464 2.76991686 189.45249939 2.78553772 C188.11082747 2.79894521 186.7691576 2.81256008 185.42749023 2.82641602 C184.25596909 2.83592789 183.08444794 2.84543976 181.87742615 2.85523987 C178.92915584 2.87463616 178.92915584 2.87463616 176 4 C176 3.34 176 2.68 176 2 C162.47 2 148.94 2 135 2 C134.67 2.66 134.34 3.32 134 4 C134 3.34 134 2.68 134 2 C89.45 2 44.9 2 -1 2 C-0.67 1.34 -0.34 0.68 0 0 Z " fill="#9B67F8" transform="translate(347,243)"/>
<path d="M0 0 C5.71460666 0.03519571 11.42924925 0.06321445 17.14389062 0.09210706 C27.88769394 0.14745971 38.63145235 0.20894368 49.37520796 0.2728284 C61.63954937 0.34544146 73.90392596 0.41091798 86.16830981 0.47589886 C111.32518869 0.60934307 136.48201257 0.751412 161.63880944 0.89946485 C161.63880944 1.22946485 161.63880944 1.55946485 161.63880944 1.89946485 C156.33498798 2.99255933 151.22681346 3.03961187 145.83959985 3.02644849 C144.85794856 3.02800848 143.87629727 3.02956847 142.86489898 3.03117573 C139.57850161 3.03516153 136.29215051 3.03200545 133.0057528 3.02885938 C130.64847815 3.03021448 128.29120372 3.03199503 125.93392968 3.03416944 C119.53332167 3.03873052 113.13272976 3.03695969 106.73212147 3.03379035 C102.73493299 3.03201273 98.73774562 3.03234777 94.74055696 3.03328061 C94.07672681 3.03343384 93.41289667 3.03358708 92.72895046 3.03374495 C91.38034832 3.03406468 90.03174618 3.0343889 88.68314404 3.03471754 C76.04243725 3.03756794 63.40173771 3.0342921 50.76103211 3.02891718 C39.91584423 3.02444851 29.07066705 3.02522645 18.22547936 3.02983594 C5.62803083 3.03518769 -6.96941134 3.03729438 -19.56686085 3.03422368 C-20.91015851 3.03390513 -22.25345617 3.03359076 -23.59675384 3.03328061 C-24.25766681 3.03312634 -24.91857979 3.03297206 -25.59952043 3.03281311 C-30.25598609 3.03194984 -34.9124455 3.0334556 -39.56891036 3.03576016 C-45.83563639 3.03864501 -52.10234216 3.03665182 -58.369066 3.03086591 C-60.67131493 3.02954168 -62.97356556 3.02992674 -65.27581382 3.03212857 C-68.4135539 3.0348532 -71.55122871 3.03144276 -74.68896461 3.02644849 C-75.60413527 3.02867921 -76.51930594 3.03090993 -77.46220905 3.03320825 C-81.55966255 3.02052215 -85.36527264 2.93679542 -89.36119056 1.89946485 C-89.36119056 1.56946485 -89.36119056 1.23946485 -89.36119056 0.89946485 C-59.56440373 0.01536202 -29.80804626 -0.19065741 0 0 Z " fill="#9362F9" transform="translate(436.36119055747986,591.1005351543427)"/>
<path d="M0 0 C51.15 0 102.3 0 155 0 C155.33 0.66 155.66 1.32 156 2 C152.76099236 3.07966921 150.42369406 3.12580451 147.01626587 3.12698364 C145.76565872 3.12980347 144.51505157 3.13262329 143.22654724 3.13552856 C141.83804307 3.13358418 140.44953904 3.13153601 139.06103516 3.12939453 C137.60074317 3.13074937 136.14045152 3.13252977 134.68016052 3.13470459 C130.71111227 3.13926987 126.74208996 3.13749285 122.77304125 3.1343255 C118.62069662 3.13179629 114.46835424 3.1341411 110.31600952 3.13571167 C103.34022624 3.13753212 96.36445355 3.13513072 89.38867188 3.13037109 C81.32541162 3.12493297 73.26217667 3.12668836 65.19891703 3.1321975 C58.27738975 3.13673724 51.35587008 3.13737482 44.43434179 3.13475883 C40.29993931 3.13320026 36.16554872 3.13299074 32.031147 3.13629532 C28.14224376 3.13918636 24.25337307 3.13717562 20.36447334 3.13140106 C18.93784578 3.13007991 17.51121547 3.13045665 16.084589 3.13266373 C14.13562748 3.13540061 12.18665996 3.13135836 10.23770142 3.12698364 C8.60229369 3.1264181 8.60229369 3.1264181 6.93384743 3.12584114 C4.17874685 3.00766697 1.68094609 2.6251687 -1 2 C-0.67 1.34 -0.34 0.68 0 0 Z " fill="#A171FB" transform="translate(348,527)"/>
<path d="M0 0 C1.22096375 0.00030212 2.44192749 0.00060425 3.69989014 0.00091553 C5.01354553 0.02156067 6.32720093 0.04220581 7.68066406 0.06347656 C9.04257374 0.0709407 10.40449418 0.07663282 11.76641846 0.08062744 C15.34399274 0.09587065 18.92091328 0.13513975 22.49822998 0.17944336 C26.1513993 0.22042524 29.80467468 0.2386446 33.45800781 0.25878906 C40.62106567 0.30163646 47.78358562 0.36987042 54.94628906 0.45410156 C54.94628906 0.78410156 54.94628906 1.11410156 54.94628906 1.45410156 C50.19656322 1.62898375 45.44656073 1.79480141 40.69628906 1.95410156 C39.98309509 1.97811035 39.26990112 2.00211914 38.53509521 2.02685547 C26.83646419 2.41218976 15.1623092 2.53717607 3.45703125 2.41699219 C2.36293945 2.40861328 1.26884766 2.40023438 0.14160156 2.39160156 C-0.8172998 2.38 -1.77620117 2.36839844 -2.76416016 2.35644531 C-5.08443399 2.29917476 -5.08443399 2.29917476 -7.05371094 3.45410156 C-7.05735657 4.29268707 -7.0610022 5.13127258 -7.0647583 5.99526978 C-7.10267679 13.91092182 -7.15957312 21.82616347 -7.23761368 29.74152565 C-7.2770676 33.81060996 -7.30926608 37.87947856 -7.32470703 41.94873047 C-7.3398877 45.87826006 -7.3743573 49.80719652 -7.42201996 53.73646164 C-7.4368194 55.23305471 -7.44475113 56.72973247 -7.44559479 58.22639847 C-7.44797074 60.32849073 -7.47509573 62.42895208 -7.5078125 64.53076172 C-7.52113617 66.32279526 -7.52113617 66.32279526 -7.534729 68.15103149 C-8.16261768 72.14724051 -9.46687776 74.37004299 -12.05371094 77.45410156 C-13.04371094 77.45410156 -14.03371094 77.45410156 -15.05371094 77.45410156 C-15.05371094 78.11410156 -15.05371094 78.77410156 -15.05371094 79.45410156 C-27.26371094 79.45410156 -39.47371094 79.45410156 -52.05371094 79.45410156 C-52.05371094 78.79410156 -52.05371094 78.13410156 -52.05371094 77.45410156 C-53.04371094 77.12410156 -54.03371094 76.79410156 -55.05371094 76.45410156 C-51.11586191 75.14148522 -47.39852392 75.39006638 -43.29980469 75.46191406 C-41.54134685 75.4794235 -39.78288294 75.49633243 -38.02441406 75.51269531 C-35.25023754 75.54373023 -32.4763614 75.57934856 -29.70239258 75.62548828 C-27.02649089 75.66768073 -24.35094706 75.69122139 -21.67480469 75.71191406 C-20.4247892 75.73984543 -20.4247892 75.73984543 -19.14952087 75.76834106 C-16.57226016 75.81513256 -16.57226016 75.81513256 -13.05371094 75.45410156 C-10.65076013 71.84967535 -10.80287623 70.22051559 -10.79833984 65.93481445 C-10.79290916 64.94893089 -10.79290916 64.94893089 -10.78736877 63.94313049 C-10.78048066 62.51738434 -10.77796825 61.09161184 -10.77931595 59.66584969 C-10.7802812 57.4085977 -10.76734001 55.15182191 -10.75033569 52.89463806 C-10.70405993 46.47772909 -10.67945365 40.06086892 -10.67285156 33.64379883 C-10.66783781 29.71736768 -10.64359643 25.79143409 -10.60752487 21.86517143 C-10.59772421 20.36969426 -10.59539643 18.87414866 -10.60069656 17.37864876 C-10.60776501 15.28615235 -10.59049332 13.1951394 -10.56787109 11.1027832 C-10.56502106 9.91270157 -10.56217102 8.72261993 -10.55923462 7.49647522 C-10.05371094 4.45410156 -10.05371094 4.45410156 -8.39993286 2.06694031 C-5.39804798 0.00338605 -3.62797417 -0.02998326 0 0 Z " fill="#9A68F7" transform="translate(449.0537109375,416.5458984375)"/>
<path d="M0 0 C0.75549133 -0.00175232 1.51098267 -0.00350464 2.28936768 -0.00531006 C4.76804962 -0.00968366 7.24665922 -0.00680558 9.7253418 -0.00341797 C11.4625805 -0.00409251 13.19981911 -0.00506379 14.9370575 -0.00631714 C18.57246807 -0.00778821 22.20785401 -0.00565933 25.84326172 -0.00097656 C30.47968424 0.00470757 35.11604869 0.00144631 39.75246906 -0.00454903 C43.33947681 -0.00818151 46.92647105 -0.00700354 50.51347923 -0.00442123 C52.22173253 -0.00375872 53.92998709 -0.00455651 55.63823891 -0.00690079 C64.18591832 -0.0160548 72.61623887 0.05115489 81.11206055 1.12939453 C80.78206055 1.78939453 80.45206055 2.44939453 80.11206055 3.12939453 C68.7591848 3.15258867 57.40631471 3.17034568 46.05342007 3.1812067 C40.78153584 3.18642005 35.50966785 3.19348959 30.23779297 3.20483398 C25.14793298 3.21571788 20.05808858 3.22168303 14.96821785 3.22427177 C13.02861345 3.22611611 11.08900989 3.2297176 9.14941216 3.23512459 C6.42787725 3.24240803 3.7064064 3.24338239 0.98486328 3.24291992 C0.18716522 3.2465152 -0.61053284 3.25011047 -1.43240356 3.2538147 C-6.02126589 3.2454046 -10.36037849 2.8870567 -14.88793945 2.12939453 C-14.88793945 1.79939453 -14.88793945 1.46939453 -14.88793945 1.12939453 C-9.8960739 0.31278007 -5.06153149 -0.01468222 0 0 Z " fill="#9A68FB" transform="translate(519.887939453125,526.87060546875)"/>
<path d="M0 0 C0.33 0 0.66 0 1 0 C1.33 5.94 1.66 11.88 2 18 C2.33 18 2.66 18 3 18 C3 22.95 3 27.9 3 33 C2.34 33 1.68 33 1 33 C1 48.18 1 63.36 1 79 C0.67 79 0.34 79 0 79 C-1.12790635 70.40451756 -1.14653183 61.83532713 -1.1328125 53.18359375 C-1.13348732 51.6757048 -1.13445883 50.16781595 -1.13571167 48.65992737 C-1.13717619 45.5225418 -1.13507173 42.38518494 -1.13037109 39.24780273 C-1.12462998 35.21928131 -1.12798807 31.19082588 -1.13394356 27.16230679 C-1.13754521 24.05948889 -1.13641319 20.95668684 -1.13381577 17.85386848 C-1.13314768 16.36704564 -1.13397079 14.88022137 -1.13629532 13.39340019 C-1.13882011 11.32790124 -1.13498584 9.26251219 -1.12939453 7.19702148 C-1.12859894 6.02139145 -1.12780334 4.84576141 -1.12698364 3.63450623 C-1 1 -1 1 0 0 Z " fill="#9A69F7" transform="translate(281,446)"/>
<path d="M0 0 C1.15255783 0.03541649 1.15255783 0.03541649 2.32839966 0.07154846 C4.76341811 0.14763601 7.19807338 0.23189345 9.6328125 0.31640625 C11.29164937 0.36968205 12.95050353 0.422422 14.609375 0.47460938 C18.65908067 0.60317597 22.70848107 0.73906638 26.7578125 0.87890625 C27.2528125 1.86890625 27.2528125 1.86890625 27.7578125 2.87890625 C26.53151123 2.8631958 25.30520996 2.84748535 24.04174805 2.83129883 C19.49640458 2.77704014 14.9510898 2.74257096 10.40551758 2.71411133 C8.43736967 2.69901543 6.46925544 2.67853677 4.5012207 2.65258789 C1.67390638 2.61623976 -1.1529636 2.59918811 -3.98046875 2.5859375 C-4.86180984 2.57045364 -5.74315094 2.55496979 -6.65119934 2.53901672 C-7.8821357 2.53867683 -7.8821357 2.53867683 -9.13793945 2.53833008 C-10.22048759 2.52833733 -10.22048759 2.52833733 -11.3249054 2.5181427 C-13.30420455 2.76717833 -13.30420455 2.76717833 -14.97167969 3.98303223 C-16.87160409 6.81813272 -16.64368287 9.16309746 -16.67456055 12.5534668 C-16.6847522 13.22690125 -16.69494385 13.90033569 -16.70544434 14.59417725 C-16.73561656 16.81807732 -16.74484625 19.04154699 -16.75390625 21.265625 C-16.77074989 22.80834896 -16.78889971 24.35105917 -16.80830383 25.89375305 C-16.85584454 29.95268456 -16.88562733 34.01156034 -16.91174316 38.07067871 C-16.94152832 42.21324677 -16.98806561 46.35562268 -17.03320312 50.49804688 C-17.11928246 58.62490569 -17.1866069 66.75178191 -17.2421875 74.87890625 C-17.5721875 74.87890625 -17.9021875 74.87890625 -18.2421875 74.87890625 C-18.2421875 73.22890625 -18.2421875 71.57890625 -18.2421875 69.87890625 C-18.9021875 69.54890625 -19.5621875 69.21890625 -20.2421875 68.87890625 C-19.5821875 68.87890625 -18.9221875 68.87890625 -18.2421875 68.87890625 C-18.4278125 66.96078125 -18.4278125 66.96078125 -18.6171875 65.00390625 C-18.68679688 64.28460938 -18.75640625 63.5653125 -18.828125 62.82421875 C-19.10593499 60.6522238 -19.10593499 60.6522238 -21.2421875 58.87890625 C-19.7571875 58.38390625 -19.7571875 58.38390625 -18.2421875 57.87890625 C-18.85043785 53.53426089 -19.50386142 49.20338758 -20.2421875 44.87890625 C-19.5821875 44.87890625 -18.9221875 44.87890625 -18.2421875 44.87890625 C-18.26313477 43.68813477 -18.28408203 42.49736328 -18.30566406 41.27050781 C-18.37809712 36.85005736 -18.42399922 32.42965929 -18.46191406 28.00878906 C-18.48202202 26.0959389 -18.50931257 24.18315014 -18.54394531 22.27050781 C-18.59249999 19.52002814 -18.61516408 16.77036148 -18.6328125 14.01953125 C-18.65345764 13.16522522 -18.67410278 12.31091919 -18.69537354 11.4307251 C-18.69678431 7.69265148 -18.68017018 5.54508594 -16.59277344 2.37011719 C-11.51297469 -0.85250545 -5.80974569 -0.21380852 0 0 Z " fill="#824AF1" transform="translate(525.2421875,299.12109375)"/>
<path d="M0 0 C1.05550049 0.00132935 1.05550049 0.00132935 2.13232422 0.00268555 C12.9461157 0.01868592 23.71587113 0.28623442 34.5 1.125 C31.19771224 3.32652517 30.19580473 3.37717104 26.35766602 3.38378906 C24.78572227 3.39324554 24.78572227 3.39324554 23.18202209 3.40289307 C21.48510475 3.39682037 21.48510475 3.39682037 19.75390625 3.390625 C18.59124741 3.39253845 17.42858856 3.3944519 16.23069763 3.39642334 C13.7702513 3.39778522 11.30979779 3.39408862 8.84936523 3.38574219 C5.08105319 3.37505263 1.31321895 3.38563273 -2.45507812 3.3984375 C-4.84375105 3.39711572 -7.23242368 3.39455293 -9.62109375 3.390625 C-10.75034775 3.39467346 -11.87960175 3.39872192 -13.04307556 3.40289307 C-14.09419022 3.39658875 -15.14530487 3.39028442 -16.22827148 3.38378906 C-17.15187973 3.38219788 -18.07548798 3.38060669 -19.02708435 3.37896729 C-21.62415549 3.11224929 -23.26601103 2.44067399 -25.5 1.125 C-17.00810874 0.01681324 -8.54740551 -0.03090385 0 0 Z " fill="#9460FA" transform="translate(469.5,374.875)"/>
<path d="M0 0 C1.32 0 2.64 0 4 0 C4.21914063 0.88042969 4.43828125 1.76085937 4.6640625 2.66796875 C7.10984609 11.93853247 7.10984609 11.93853247 14 18 C16.7124618 19.3049484 16.7124618 19.3049484 19 20 C17.375 20.75 17.375 20.75 15 21 C9.76740946 18.16568012 5.9455352 15.07408884 4.16015625 9.26953125 C3.64714458 7.29660577 3.16271939 5.3159653 2.7109375 3.328125 C2.47632813 2.55984375 2.24171875 1.7915625 2 1 C1.34 0.67 0.68 0.34 0 0 Z " fill="#925FF5" transform="translate(554,656)"/>
<path d="M0 0 C0.99 0 1.98 0 3 0 C3 9.9 3 19.8 3 30 C2.67 30 2.34 30 2 30 C2 28.35 2 26.7 2 25 C1.34 24.67 0.68 24.34 0 24 C0.66 24 1.32 24 2 24 C1.87625 22.72125 1.7525 21.4425 1.625 20.125 C1.55539062 19.40570313 1.48578125 18.68640625 1.4140625 17.9453125 C1.13625251 15.77331755 1.13625251 15.77331755 -1 14 C-0.01 13.67 0.98 13.34 2 13 C1.39174965 8.65535464 0.73832608 4.32448133 0 0 Z " fill="#9560F6" transform="translate(505,344)"/>
<path d="M0 0 C7.07721931 -0.12109311 13.97195301 0.14626761 21 1 C21 1.33 21 1.66 21 2 C13.77248543 3.25695906 6.16828842 3.91154358 -1 2 C-0.67 1.34 -0.34 0.68 0 0 Z " fill="#9A69FB" transform="translate(348,527)"/>
<path d="M0 0 C0 3.58912412 -0.66436554 4.10857029 -3 6.6875 C-3.556875 7.31011719 -4.11375 7.93273437 -4.6875 8.57421875 C-5.120625 9.04472656 -5.55375 9.51523437 -6 10 C-6.66 9.67 -7.32 9.34 -8 9 C-7.525625 8.566875 -7.05125 8.13375 -6.5625 7.6875 C-4.76313043 5.97690387 -4.76313043 5.97690387 -4 3 C-1.9375 1.3125 -1.9375 1.3125 0 0 Z " fill="#9764F6" transform="translate(647,636)"/>
<path d="M0 0 C-4.1795645 2.78637633 -6.14668677 1.79562512 -11 1 C-11 0.67 -11 0.34 -11 0 C-3.57142857 -1.28571429 -3.57142857 -1.28571429 0 0 Z " fill="#9463FA" transform="translate(504,528)"/>
<path d="M0 0 C-1.32 0.99 -2.64 1.98 -4 3 C-5.32 2.34 -6.64 1.68 -8 1 C-4.93251126 -0.86240388 -3.40254489 -1.2151946 0 0 Z " fill="#A070FB" transform="translate(687,196)"/>
<path d="M0 0 C1.65 0 3.3 0 5 0 C5 0.33 5 0.66 5 1 C3.35 1 1.7 1 0 1 C0 0.67 0 0.34 0 0 Z " fill="#BD8FFD" transform="translate(442,246)"/>
<path d="M0 0 C1 4 1 4 1 4 Z " fill="#BB90FF" transform="translate(505,468)"/>
<path d="M0 0 C4 1 4 1 4 1 Z " fill="#BC8FFE" transform="translate(584,246)"/>
<path d="M0 0 C4 1 4 1 4 1 Z " fill="#BA8DFD" transform="translate(539,246)"/>
<path d="M0 0 C4 1 4 1 4 1 Z " fill="#BC8EFE" transform="translate(448,246)"/>
<path d="M0 0 C4 1 4 1 4 1 Z " fill="#BB8FFE" transform="translate(408,246)"/>
<path d="M0 0 C0.66 0.66 1.32 1.32 2 2 C1.34 2 0.68 2 0 2 C0 1.34 0 0.68 0 0 Z " fill="#B58DFB" transform="translate(664,638)"/>
<path d="" fill="#B98DFB" transform="translate(0,0)"/>
<path d="" fill="#B98BFF" transform="translate(0,0)"/>
<path d="" fill="#B589FB" transform="translate(0,0)"/>
<path d="M0 0 C3 1 3 1 3 1 Z " fill="#BC91FC" transform="translate(353,389)"/>
<path d="M0 0 C0.99 0.495 0.99 0.495 2 1 C1.01 1.495 1.01 1.495 0 2 C0 1.34 0 0.68 0 0 Z " fill="#B98CFD" transform="translate(504,312)"/>
<path d="M0 0 C3 1 3 1 3 1 Z " fill="#BB8FFD" transform="translate(421,246)"/>
<path d="M0 0 C3 1 3 1 3 1 Z " fill="#BB8FFE" transform="translate(394,246)"/>
<path d="M0 0 C2 1 2 1 2 1 Z " fill="#B288F1" transform="translate(365,679)"/>
<path d="M0 0 C2 1 2 1 2 1 Z " fill="#B087F3" transform="translate(360,679)"/>
<path d="M0 0 C2 1 2 1 2 1 Z " fill="#B38AF6" transform="translate(312,655)"/>
<path d="M0 0 C2 1 2 1 2 1 Z " fill="#B48AF9" transform="translate(707,654)"/>
<path d="M0 0 C2 1 2 1 2 1 Z " fill="#B88CFD" transform="translate(657,636)"/>
<path d="" fill="#B28CF6" transform="translate(0,0)"/>
<path d="" fill="#B98EFE" transform="translate(0,0)"/>
<path d="M0 0 C2 1 2 1 2 1 Z " fill="#BA8FF8" transform="translate(432,298)"/>
<path d="" fill="#BC8EFD" transform="translate(0,0)"/>
<path d="M0 0 C2 1 2 1 2 1 Z " fill="#BE90FF" transform="translate(576,246)"/>
<path d="M0 0 C2 1 2 1 2 1 Z " fill="#BB8EFF" transform="translate(568,246)"/>
<path d="M0 0 C2 1 2 1 2 1 Z " fill="#BA8DFE" transform="translate(507,246)"/>
<path d="" fill="#B68CF7" transform="translate(0,0)"/>
<path d="M0 0 C2 1 2 1 2 1 Z " fill="#B68AFB" transform="translate(657,202)"/>
<path d="" fill="#545356" transform="translate(0,0)"/>
<path d="" fill="#B388F4" transform="translate(0,0)"/>
<path d="" fill="#B489F0" transform="translate(0,0)"/>
<path d="" fill="#B78FF2" transform="translate(0,0)"/>
<path d="" fill="#B388F7" transform="translate(0,0)"/>
<path d="" fill="#AF85F2" transform="translate(0,0)"/>
<path d="" fill="#B286F6" transform="translate(0,0)"/>
<path d="" fill="#B085F9" transform="translate(0,0)"/>
<path d="" fill="#B488F5" transform="translate(0,0)"/>
<path d="" fill="#B087F6" transform="translate(0,0)"/>
<path d="" fill="#B88AFB" transform="translate(0,0)"/>
<path d="" fill="#BA8FFC" transform="translate(0,0)"/>
<path d="" fill="#B287F6" transform="translate(0,0)"/>
<path d="" fill="#B487F6" transform="translate(0,0)"/>
<path d="" fill="#B88AFB" transform="translate(0,0)"/>
<path d="" fill="#B88CFA" transform="translate(0,0)"/>
<path d="" fill="#B388F6" transform="translate(0,0)"/>
<path d="" fill="#B688F8" transform="translate(0,0)"/>
<path d="" fill="#B58AF7" transform="translate(0,0)"/>
<path d="" fill="#B38EF9" transform="translate(0,0)"/>
<path d="" fill="#B78CF9" transform="translate(0,0)"/>
<path d="" fill="#B68AFC" transform="translate(0,0)"/>
<path d="" fill="#B58DF7" transform="translate(0,0)"/>
<path d="" fill="#B78CFB" transform="translate(0,0)"/>
<path d="" fill="#B78AFA" transform="translate(0,0)"/>
<path d="" fill="#B88BFC" transform="translate(0,0)"/>
<path d="" fill="#B688FC" transform="translate(0,0)"/>
<path d="" fill="#B68DF5" transform="translate(0,0)"/>
<path d="" fill="#B48BFA" transform="translate(0,0)"/>
<path d="" fill="#B389F5" transform="translate(0,0)"/>
<path d="" fill="#B389F5" transform="translate(0,0)"/>
<path d="" fill="#B48AF6" transform="translate(0,0)"/>
<path d="" fill="#BA8DFB" transform="translate(0,0)"/>
<path d="" fill="#BA8EFD" transform="translate(0,0)"/>
<path d="" fill="#B48EFA" transform="translate(0,0)"/>
<path d="" fill="#B68FFC" transform="translate(0,0)"/>
<path d="" fill="#BB90FC" transform="translate(0,0)"/>
<path d="" fill="#B58DF9" transform="translate(0,0)"/>
<path d="" fill="#B991FE" transform="translate(0,0)"/>
<path d="" fill="#BB8FFC" transform="translate(0,0)"/>
<path d="" fill="#BA8CFE" transform="translate(0,0)"/>
<path d="" fill="#BB90FF" transform="translate(0,0)"/>
<path d="" fill="#BB8DFF" transform="translate(0,0)"/>
<path d="" fill="#BB90FC" transform="translate(0,0)"/>
<path d="" fill="#BA8DFC" transform="translate(0,0)"/>
<path d="" fill="#BE8EFF" transform="translate(0,0)"/>
<path d="" fill="#BD90FF" transform="translate(0,0)"/>
<path d="" fill="#BC8BFF" transform="translate(0,0)"/>
<path d="" fill="#BB8DFE" transform="translate(0,0)"/>
<path d="" fill="#BD91FB" transform="translate(0,0)"/>
<path d="" fill="#B892FA" transform="translate(0,0)"/>
<path d="" fill="#BC8FFD" transform="translate(0,0)"/>
<path d="" fill="#BD8EFE" transform="translate(0,0)"/>
<path d="" fill="#BB91FD" transform="translate(0,0)"/>
<path d="" fill="#BD92FE" transform="translate(0,0)"/>
<path d="" fill="#BB92FC" transform="translate(0,0)"/>
<path d="" fill="#BA8AFD" transform="translate(0,0)"/>
<path d="" fill="#B88CFC" transform="translate(0,0)"/>
<path d="" fill="#BA8AFF" transform="translate(0,0)"/>
<path d="" fill="#BE90FD" transform="translate(0,0)"/>
<path d="" fill="#B98CFE" transform="translate(0,0)"/>
<path d="" fill="#B98CFF" transform="translate(0,0)"/>
<path d="" fill="#B98DFD" transform="translate(0,0)"/>
<path d="" fill="#B88AFF" transform="translate(0,0)"/>
<path d="" fill="#BA8DFC" transform="translate(0,0)"/>
<path d="" fill="#B88BFE" transform="translate(0,0)"/>
<path d="" fill="#B78BFB" transform="translate(0,0)"/>
<path d="" fill="#B58AFC" transform="translate(0,0)"/>
<path d="" fill="#B98FFB" transform="translate(0,0)"/>
<path d="" fill="#BB8FFD" transform="translate(0,0)"/>
<path d="" fill="#BC91FF" transform="translate(0,0)"/>
<path d="" fill="#BD90FF" transform="translate(0,0)"/>
<path d="" fill="#BB8DFF" transform="translate(0,0)"/>
<path d="" fill="#BC8DFF" transform="translate(0,0)"/>
<path d="" fill="#BC8FFF" transform="translate(0,0)"/>
<path d="" fill="#BD90FD" transform="translate(0,0)"/>
<path d="" fill="#BB8FFE" transform="translate(0,0)"/>
<path d="" fill="#BD90FE" transform="translate(0,0)"/>
<path d="" fill="#BB8FFF" transform="translate(0,0)"/>
<path d="" fill="#BC8EFD" transform="translate(0,0)"/>
<path d="" fill="#BD8DFF" transform="translate(0,0)"/>
<path d="" fill="#BE8FFF" transform="translate(0,0)"/>
<path d="" fill="#BC8FFC" transform="translate(0,0)"/>
<path d="" fill="#BA8EFB" transform="translate(0,0)"/>
<path d="" fill="#BB8FFD" transform="translate(0,0)"/>
<path d="" fill="#BA8EFE" transform="translate(0,0)"/>
<path d="" fill="#BC8FFD" transform="translate(0,0)"/>
<path d="" fill="#BC8EFF" transform="translate(0,0)"/>
<path d="" fill="#BC8EFF" transform="translate(0,0)"/>
<path d="" fill="#BA8DFE" transform="translate(0,0)"/>
<path d="" fill="#BC8FFD" transform="translate(0,0)"/>
<path d="" fill="#BB8EFF" transform="translate(0,0)"/>
<path d="" fill="#BC8FFF" transform="translate(0,0)"/>
<path d="" fill="#B98FFE" transform="translate(0,0)"/>
<path d="" fill="#BA8EFF" transform="translate(0,0)"/>
<path d="" fill="#BC8FFD" transform="translate(0,0)"/>
<path d="" fill="#BC8EFD" transform="translate(0,0)"/>
<path d="" fill="#BD8EFF" transform="translate(0,0)"/>
<path d="" fill="#BC8EFC" transform="translate(0,0)"/>
<path d="" fill="#BD8FFE" transform="translate(0,0)"/>
<path d="" fill="#BC90FE" transform="translate(0,0)"/>
<path d="" fill="#BB8FFD" transform="translate(0,0)"/>
<path d="" fill="#BD8EFC" transform="translate(0,0)"/>
<path d="" fill="#BC90FE" transform="translate(0,0)"/>
<path d="" fill="#B48AF5" transform="translate(0,0)"/>
<path d="" fill="#B288F4" transform="translate(0,0)"/>
<path d="" fill="#B68FF2" transform="translate(0,0)"/>
<path d="" fill="#B98DFB" transform="translate(0,0)"/>
<path d="" fill="#B98BFB" transform="translate(0,0)"/>
<path d="" fill="#B78AF8" transform="translate(0,0)"/>
<path d="" fill="#B990F7" transform="translate(0,0)"/>
<path d="" fill="#B389F3" transform="translate(0,0)"/>
<path d="" fill="#B28AF0" transform="translate(0,0)"/>
<path d="" fill="#B88CF8" transform="translate(0,0)"/>
<path d="" fill="#B087EE" transform="translate(0,0)"/>
<path d="" fill="#B288F5" transform="translate(0,0)"/>
<path d="" fill="#B58BF4" transform="translate(0,0)"/>
<path d="" fill="#B085F2" transform="translate(0,0)"/>
<path d="" fill="#B288F7" transform="translate(0,0)"/>
<path d="" fill="#B086F2" transform="translate(0,0)"/>
<path d="" fill="#B287F2" transform="translate(0,0)"/>
</svg>
